<?xml version="1.0" encoding="UTF-8" standalone="no"?>
<!-- Created with Inkscape (http://www.inkscape.org/) -->

<svg
   xmlns:dc="http://purl.org/dc/elements/1.1/"
   xmlns:cc="http://creativecommons.org/ns#"
   xmlns:rdf="http://www.w3.org/1999/02/22-rdf-syntax-ns#"
   xmlns:svg="http://www.w3.org/2000/svg"
   xmlns="http://www.w3.org/2000/svg"
   xmlns:sodipodi="http://sodipodi.sourceforge.net/DTD/sodipodi-0.dtd"
   xmlns:inkscape="http://www.inkscape.org/namespaces/inkscape"
   width="210mm"
   height="297mm"
   id="svg2"
   version="1.1"
   inkscape:version="0.48.4 r9939"
   sodipodi:docname="lalibelulaBNRosaColor.svg">
  <defs
     id="defs4" />
  <sodipodi:namedview
     id="base"
     pagecolor="#ffffff"
     bordercolor="#666666"
     borderopacity="1.0"
     inkscape:pageopacity="0.0"
     inkscape:pageshadow="2"
     inkscape:zoom="0.98994949"
     inkscape:cx="526.71293"
     inkscape:cy="526.55612"
     inkscape:document-units="px"
     inkscape:current-layer="layer1"
     showgrid="false"
     inkscape:window-width="1280"
     inkscape:window-height="952"
     inkscape:window-x="-4"
     inkscape:window-y="-4"
     inkscape:window-maximized="1" />
  <metadata
     id="metadata7">
    <rdf:RDF>
      <cc:Work
         rdf:about="">
        <dc:format>image/svg+xml</dc:format>
        <dc:type
           rdf:resource="http://purl.org/dc/dcmitype/StillImage" />
        <dc:title></dc:title>
      </cc:Work>
    </rdf:RDF>
  </metadata>
  <g
     inkscape:label="Capa 1"
     inkscape:groupmode="layer"
     id="layer1">
    <rect
       style="fill:#e797e6;fill-opacity:1;stroke:none"
       id="rect3820"
       width="572.75647"
       height="367.69553"
       x="134.3503"
       y="264.44321" />
    <path
       style="fill:#9648ff;stroke:none;stroke-width:1px;stroke-linecap:butt;stroke-linejoin:miter;stroke-opacity:1;fill-opacity:1"
       d="m 407.14286,416.82647 c 0,0 14.46429,-13.39286 21.96429,-27.67858 7.5,-14.28571 6.96428,-23.92857 6.96428,-23.92857 0,0 2.32143,-17.5 -14.28571,-17.32142 C 405.17857,348.07647 405,369.68361 405,369.68361 l 0,48.39286 z"
       id="path2996"
       inkscape:connector-curvature="0"
       sodipodi:nodetypes="cscsccc" />
    <path
       style="fill:#befcff;stroke:none;stroke-width:1px;stroke-linecap:butt;stroke-linejoin:miter;stroke-opacity:1;fill-opacity:1"
       d="m 403.75,418.96932 c 0,0 0.16641,-39.62671 -3.75,-58.39285 -4.28571,-20.53571 -17.09426,-36.68544 -36.96428,-27.14286 -9.2876,4.46038 -11.96429,16.78571 -7.32143,31.78572 4.72263,15.25774 43.21428,56.96428 43.21428,56.96428 z"
       id="path2998"
       inkscape:connector-curvature="0"
       sodipodi:nodetypes="cssscc" />
    <path
       style="fill:#faffa2;stroke:none;stroke-width:1px;stroke-linecap:butt;stroke-linejoin:miter;stroke-opacity:1;fill-opacity:1"
       d="m 397.85715,424.1479 c 0,0 -16.86782,-16.18454 -26.25001,-28.03572 -10.17857,-12.85714 -5.97888,-12.49018 -26.42857,-29.64286 -11.54834,-9.68645 -21.96429,3.92857 -18.57143,16.07143 2.19162,7.84369 18.05068,27.26972 28.57144,32.5 19.50921,9.69879 40.17856,12.14286 40.17856,12.14286 z"
       id="path3000"
       inkscape:connector-curvature="0"
       sodipodi:nodetypes="csssscc" />
    <path
       style="fill:#e797e6;fill-opacity:1;stroke:none"
       d="m 360.30933,334.46805 c 0,0 4.795,-3.41412 14.24687,-0.75127 10.00985,2.82004 15.38067,14.19381 15.2544,19.98206 -0.12073,5.53439 -2.63711,11.0154 -11.97884,11.33108 -7.31724,0.24726 -14.62305,-8.577 -14.65183,-14.70631 -0.0161,-3.43485 1.99153,-8.80385 7.95835,-8.76051 5.75861,0.0418 8.1679,4.42667 8.41978,7.44955 0.20508,2.46127 -1.98409,7.42418 -6.45024,7.48731 -3.39251,0.048 -2.58293,-2.44955 -1.94075,-2.99424 1.09793,-0.93125 3.21242,0.10646 4.90436,-2.0364 1.53732,-1.94703 -1.02996,-6.72258 -4.96937,-6.73341 -3.75423,-0.0103 -4.91235,2.67588 -4.81059,5.32465 0.19288,5.02067 5.29401,11.68111 11.3871,11.76591 5.72489,0.0797 7.95628,-3.81857 8.18179,-7.11223 0.53351,-7.79217 -4.38846,-17.80298 -13.89607,-17.88777 -8.75694,-0.0781 -12.04382,7.31376 -12.14286,11.06245 -0.25254,9.55838 7.23033,20.12016 18.57143,20.36612 10.26226,0.22256 15.8718,-4.86654 15.73595,-13.20903 -0.2241,-13.76161 -9.5247,-25.22466 -20.42269,-25.17617 -9.53972,0.0425 -13.39679,4.59821 -13.39679,4.59821 z"
       id="path3002"
       inkscape:connector-curvature="0"
       sodipodi:nodetypes="cssssssssssssssssssc" />
    <path
       style="fill:#e797e6;fill-opacity:1;stroke:none"
       d="m 414.92016,348.79093 c 0,0 15.73601,-5.17638 15.84677,12.37437 0.0665,10.54411 -8.7757,12.2481 -11.49049,12.31124 -2.71478,0.0631 -7.19733,-2.20971 -7.26047,-8.3969 -0.0709,-6.94444 3.66181,-9.09137 6.9448,-9.09137 3.283,0 6.25032,1.89404 6.31345,4.86136 0.0631,2.96732 -2.71478,4.98762 -4.60882,5.05076 -3.40926,-0.18944 -4.43083,-3.94403 -2.90419,-4.41942 1.10001,-0.34254 0.56818,1.4521 2.90419,1.76777 1.45209,-0.0631 1.8309,-1.32582 1.8309,-2.39911 0,-1.07329 -0.25253,-2.52538 -3.72493,-2.58852 -1.95686,-0.0356 -3.69591,2.14772 -3.53554,6.43973 0.0872,2.33469 1.39076,4.69378 4.41942,4.79822 3.66181,0.12627 8.99333,-3.34663 8.90197,-8.71256 -0.10105,-5.93513 -4.10374,-8.77571 -8.83884,-8.77571 -3.97948,0 -9.62699,3.21413 -9.84898,12.12184 -0.17465,7.00831 3.40926,12.31123 8.46002,12.50063 7.44589,0.27922 14.71214,-4.76587 14.89975,-15.46795 0.17489,-9.97553 -6.18952,-13.75535 -10.03839,-13.88961 -5.42957,-0.18941 -8.27062,1.51523 -8.27062,1.51523 z"
       id="path3004"
       inkscape:connector-curvature="0"
       sodipodi:nodetypes="cscssccscssssssssssc" />
    <path
       style="fill:#e797e6;fill-opacity:1;stroke:none"
       d="m 326.91062,370.19354 c 0,0 0.82063,-1.90035 6.69226,-2.0203 6.31241,-0.12895 13.38452,5.87151 13.57392,12.94257 0.18941,7.07107 -3.78807,7.70242 -5.93464,7.63928 -2.14658,-0.0631 -9.84899,-2.20971 -9.84899,-9.28077 0,-4.73509 2.85309,-4.43058 3.66181,-3.72494 1.78704,1.55927 2.16855,3.3363 4.48254,3.4724 1.0733,0.0631 1.89404,-0.56821 1.76777,-1.89404 0.0631,-1.6415 -4.54513,-5.18011 -8.14435,-5.17703 -2.33541,0.002 -4.21127,1.19907 -4.16688,7.76555 0.032,4.73803 5.1088,11.61675 11.36421,11.61675 7.82868,0 10.08651,-5.87189 10.0384,-8.83883 -0.18941,-11.67989 -7.93973,-19.75872 -16.66753,-19.44544 -4.60499,0.16529 -6.81852,6.9448 -6.81852,6.9448 z"
       id="path3006"
       inkscape:connector-curvature="0"
       sodipodi:nodetypes="csscssscsssssc" />
    <path
       style="fill:#ff1d1d;fill-opacity:1;stroke:none"
       d="m 421.48615,412.17801 c 0,0 -0.448,-1.81262 0.0631,-2.33598 4.50253,-4.61011 22.38894,-16.92373 22.41276,-24.05426 0.006,-1.83198 -0.51007,-3.13384 -1.57836,-3.03046 -1.95717,0.1894 0.91037,3.19221 -2.08343,7.19734 -5.76963,7.71863 -20.645,18.18275 -20.70814,20.32932 -0.0672,2.28584 0.37881,2.39911 0.37881,2.39911 z"
       id="path3778"
       inkscape:connector-curvature="0"
       sodipodi:nodetypes="cssssscc" />
    <path
       style="fill:#ff1f1f;fill-opacity:1;stroke:none"
       d="m 424.26407,413.69323 c 0,0 -0.0563,-1.58464 0.37881,-1.8309 8.37673,-4.74096 22.48622,-12.12146 22.91784,-13.76333 0.88274,-3.35794 -0.30957,-3.72157 -1.32583,-3.66179 -1.07329,0.0631 0.68483,2.13418 -1.26269,3.66179 -9.18678,7.20603 -21.08694,10.54347 -21.71828,13.7002 -0.34669,1.73344 0,1.76777 0,1.76777 l -0.37881,0.3788 z"
       id="path3780"
       inkscape:connector-curvature="0"
       sodipodi:nodetypes="csssssccc" />
    <g
       style="font-size:70px;font-style:normal;font-variant:normal;font-weight:normal;font-stretch:normal;line-height:125%;letter-spacing:0px;word-spacing:0px;fill:#cb48ff;fill-opacity:1;stroke:#ff40d9;stroke-opacity:1;font-family:Ravie;-inkscape-font-specification:Ravie"
       id="flowRoot3782">
      <path
         d="m 256.87988,423.22395 c -5e-5,3.44077 -0.52414,6.80177 -1.57226,10.083 -0.75201,2.3698 -1.78879,4.67123 -3.11035,6.9043 -0.72922,1.13932 -1.44699,2.29004 -2.15332,3.45215 -0.18234,0.29622 -0.48996,0.41015 -0.92286,0.3418 -8.40824,-1.27605 -16.40628,-1.91407 -23.99414,-1.91407 -10.02605,0 -16.05306,1.37858 -18.08105,4.13575 l -1.53809,-8.61328 c 1.23047,-0.82031 2.81412,-1.23047 4.75098,-1.23047 0.97981,0 2.10774,0.13672 3.38379,0.41015 -3.14454,-7.86131 -4.71681,-18.68487 -4.7168,-32.4707 -1e-5,-1.02535 0.0285,-2.59192 0.0855,-4.69971 0.057,-2.1077 0.0854,-3.71984 0.0854,-4.83642 -1e-5,-1.9368 -1.03679,-3.09891 -3.11035,-3.48633 -0.75196,-0.0911 -1.91407,-0.28478 -3.48633,-0.58106 -0.61523,-0.15945 -0.92285,-1.2532 -0.92285,-3.28125 0,-0.52403 0.0456,-1.01394 0.13672,-1.46972 0.43294,0.20513 10.68684,1.23052 30.76172,3.07617 -1.93688,3.9421 -3.70283,9.06905 -5.29786,15.38086 -1.709,6.67646 -2.56349,12.16799 -2.56347,16.47461 -2e-5,10.32227 3.94203,15.4834 11.82617,15.4834 5.71936,0 10.026,-1.08235 12.91992,-3.24707 2.11909,-1.57226 3.17866,-3.33821 3.17871,-5.29786 -5e-5,-1.02537 -0.2507,-1.53807 -0.75195,-1.53808 -0.11398,1e-5 -0.22791,0.0456 -0.3418,0.13672 -3.48637,2.41537 -7.06384,3.62306 -10.73242,3.62304 -3.34964,2e-5 -6.02705,-1.13931 -8.03223,-3.41796 -0.8887,-1.00259 -1.33303,-2.07356 -1.333,-3.2129 -3e-5,-1.86846 1.08232,-3.69138 3.24707,-5.46875 2.09632,-1.75453 4.84208,-3.15589 8.2373,-4.2041 2.68876,-0.84307 4.89904,-1.26462 6.63086,-1.26465 4.94461,3e-5 7.41694,3.5775 7.41699,10.73243 z"
         style="stroke:#ff40d9;stroke-opacity:1;fill:#cb48ff;fill-opacity:1"
         id="path3799" />
      <path
         d="m 317.48047,441.61262 c -1.07102,-0.75195 -2.81418,-1.12793 -5.22949,-1.12793 -2.91672,0 -6.20936,0.47851 -9.87793,1.43555 -3.66866,0.95703 -6.53975,2.07356 -8.61328,3.34961 0.79749,-3.82813 1.19625,-6.38021 1.19628,-7.65625 -3e-5,-0.38737 -0.0684,-0.56966 -0.20507,-0.54688 -0.0912,0.0228 -0.2393,0.11394 -0.44434,0.27344 -3.82816,3.14453 -8.39684,5.05859 -13.70605,5.74219 -2.52932,0.319 -4.67125,0.47851 -6.42579,0.47851 -5.19532,0 -8.9209,-1.10514 -11.17675,-3.31543 -2.028,-1.98242 -3.042,-5.02441 -3.042,-9.12598 0,-2.14191 0.20508,-4.50031 0.61524,-7.07519 0.8431,-5.10415 2.66601,-9.31964 5.46875,-12.64649 3.37238,-3.94202 7.69041,-5.91305 12.9541,-5.91308 5.69659,3e-5 11.24509,2.62047 16.64551,7.86133 -4e-5,-1.1393 -0.31905,-2.74574 -0.95703,-4.81934 -0.70642,-2.21025 -1.50394,-4.01038 -2.39258,-5.40039 11.21089,-1.70894 18.95828,-3.34957 23.24219,-4.92187 0.4101,1.43558 0.61517,2.88252 0.61523,4.34082 -6e-5,1.18493 -0.13677,1.9141 -0.41016,2.1875 -3.34966,1.13935 -5.02446,2.16474 -5.02441,3.07617 l 0,0.0684 c -5e-5,0.75198 0.0341,1.93688 0.10254,3.55468 0.0683,1.61787 0.10249,2.85973 0.10254,3.72559 -5e-5,7.31447 -0.9343,13.35288 -2.80274,18.11523 1.50386,-0.93423 3.2926,-1.40135 5.36622,-1.40136 1.09369,10e-6 2.10769,0.12533 3.04199,0.37597 z m -19.8584,-19.10645 c -4e-5,-0.95701 -0.95707,-1.75453 -2.87109,-2.39257 -2.02803,-0.68358 -4.67126,-1.02537 -7.92969,-1.0254 -4.26109,3e-5 -8.36265,0.79755 -12.30469,2.39258 -3.82814,1.57229 -5.7422,3.15594 -5.74219,4.75098 -10e-6,1.27605 1.35579,2.30144 4.06739,3.07617 2.43813,0.68361 5.33201,1.0254 8.68164,1.02539 3.80531,10e-6 7.48532,-0.91144 11.04004,-2.73437 3.37236,-1.75455 5.05855,-3.45213 5.05859,-5.09278 z"
         style="stroke:#ff40d9;stroke-opacity:1;fill:#cb48ff;fill-opacity:1"
         id="path3801" />
    </g>
    <g
       style="font-size:75px;font-style:normal;font-variant:normal;font-weight:normal;font-stretch:normal;line-height:125%;letter-spacing:0px;word-spacing:0px;fill:#cb48ff;fill-opacity:1;stroke:#ff40d9;stroke-opacity:1;font-family:Ravie;-inkscape-font-specification:Ravie"
       id="flowRoot3790">
      <path
         d="m 259.70166,510.46316 c -6e-5,3.68654 -0.56158,7.28761 -1.68457,10.80322 -0.80572,2.53907 -1.91656,5.00489 -3.33252,7.39746 -0.7813,1.2207 -1.55034,2.45361 -2.30713,3.69873 -0.19536,0.31738 -0.52495,0.43945 -0.98877,0.36621 -9.00883,-1.36719 -17.57816,-2.05078 -25.70801,-2.05078 -10.7422,0 -17.19971,1.47705 -19.37255,4.43115 l -1.64795,-9.22851 c 1.31835,-0.8789 3.01513,-1.31836 5.09033,-1.31836 1.04979,0 2.25829,0.14649 3.62549,0.43945 -3.36915,-8.42284 -5.05372,-20.0195 -5.05371,-34.79004 -1e-5,-1.09859 0.0305,-2.77705 0.0915,-5.0354 0.061,-2.25825 0.0915,-3.98555 0.0916,-5.18188 -1e-5,-2.07515 -1.11084,-3.32026 -3.33252,-3.73535 -0.80567,-0.0976 -2.05078,-0.30513 -3.73535,-0.62256 -0.65918,-0.17085 -0.98877,-1.34272 -0.98877,-3.51563 0,-0.56146 0.0488,-1.08636 0.14648,-1.57471 0.46387,0.21979 11.45019,1.31842 32.95899,3.2959 -2.07523,4.22369 -3.96731,9.71685 -5.67627,16.4795 -1.83108,7.15335 -2.74661,13.03713 -2.74658,17.65136 -3e-5,11.05958 4.2236,16.58936 12.6709,16.58936 6.12788,0 10.74214,-1.15966 13.84277,-3.47901 2.27045,-1.68456 3.40571,-3.57664 3.40576,-5.67627 -5e-5,-1.09861 -0.26861,-1.64793 -0.80566,-1.64794 -0.12213,10e-6 -0.2442,0.0488 -0.36621,0.14648 -3.7354,2.5879 -7.56841,3.88185 -11.49903,3.88184 -3.5889,10e-6 -6.45755,-1.22069 -8.60595,-3.66211 -0.95218,-1.07421 -1.42826,-2.22167 -1.42823,-3.44239 -3e-5,-2.00193 1.15964,-3.95505 3.47901,-5.85937 2.24605,-1.87986 5.18795,-3.38132 8.82568,-4.5044 2.88081,-0.90329 5.24898,-1.35495 7.10449,-1.35498 5.2978,3e-5 7.94672,3.83304 7.94678,11.49903 z"
         style="stroke:#ff40d9;fill:#cb48ff;fill-opacity:1;stroke-opacity:1"
         id="path3804" />
      <path
         d="m 299.21582,478.9324 c -4e-5,1.63579 -1.87992,3.02739 -5.63965,4.1748 -3.32034,1.02544 -6.83596,1.53813 -10.54687,1.53809 -3.46682,4e-5 -6.31105,-0.64693 -8.53272,-1.94092 -2.56348,-1.51363 -3.84522,-3.68647 -3.84521,-6.51856 -10e-6,-3.66205 4.22362,-5.4931 12.6709,-5.49316 4.68747,6e-5 8.55709,0.86676 11.60888,2.6001 2.85641,1.61138 4.28463,3.49126 4.28467,5.63965 z m 0.29297,51.92871 c -4.95609,-0.90332 -10.22952,-1.35498 -15.82031,-1.35498 -5.39553,0 -12.93947,0.89111 -22.63184,2.67334 0.36621,-1.80665 0.78125,-3.90625 1.24512,-6.29883 3.90624,-0.46387 6.45141,-1.3977 7.6355,-2.80152 1.18407,-1.4038 2.17894,-4.00999 2.98461,-7.8186 0.78124,-3.61326 1.17187,-7.14109 1.17188,-10.5835 -10e-6,-3.66208 -1.5503,-5.49313 -4.65088,-5.49316 -0.97657,3e-5 -1.9043,0.10989 -2.7832,0.32959 -1.34278,-2.95407 -2.01417,-5.06588 -2.01416,-6.33545 10.00975,-0.0732 19.36033,-1.72115 28.05176,-4.94385 0.0976,0.0733 0.14645,0.28081 0.14648,0.62256 -3e-5,0.53715 -0.1221,1.51371 -0.36621,2.92969 -1.56253,8.64261 -2.34378,15.83254 -2.34375,21.56982 -3e-5,3.97951 0.47604,6.5796 1.42822,7.8003 0.58591,0.75684 1.41599,1.13526 2.49024,1.13525 1.22067,10e-6 2.61227,-0.32958 4.1748,-0.98877 0.43942,-0.17089 0.69576,0.0366 0.76904,0.62256 0.26852,2.12403 0.43942,5.10254 0.5127,8.93555 z"
         style="stroke:#ff40d9;fill:#cb48ff;fill-opacity:1;stroke-opacity:1"
         id="path3806" />
      <path
         d="m 357.11377,505.3362 c -6e-5,0.92776 -0.0977,1.95315 -0.29297,3.07618 -1.04986,5.93263 -3.07623,10.87647 -6.0791,14.83154 -3.46685,4.56543 -7.64165,6.84814 -12.52441,6.84814 -6.0059,0 -10.98636,-1.17187 -14.94141,-3.51562 -0.0244,0.0732 -0.0366,0.18311 -0.0366,0.32959 -3e-5,1.00098 0.62253,3.23486 1.86767,6.70166 -5.54201,-2.63672 -10.97413,-3.95508 -16.29638,-3.95508 -3.32032,0 -5.7129,0.62256 -7.17774,1.86768 l 0.21973,-8.53272 c 0.78125,-0.3662 1.70898,-0.54931 2.7832,-0.54932 1.78222,10e-6 3.6499,0.47609 5.60303,1.42823 -3.29591,-12.08495 -4.94385,-27.16061 -4.94385,-45.22705 0,-1.90425 -1.07422,-3.05171 -3.22265,-3.44239 -0.78126,-0.12201 -1.92872,-0.34174 -3.44239,-0.65918 -0.61035,-0.19525 -0.91552,-1.19623 -0.91552,-3.00293 0,-0.36615 0.0244,-0.73236 0.0732,-1.09863 0.0488,-0.36615 0.0732,-0.57367 0.0732,-0.62256 1.34277,0.36627 11.4746,1.30621 30.39551,2.81983 -4.15042,9.17973 -6.60403,18.71341 -7.36084,28.60107 0.95212,-1.19626 1.90427,-2.39255 2.85644,-3.58887 1.46482,-1.70895 3.10056,-3.07613 4.90723,-4.10156 2.39255,-1.39156 5.20016,-2.30709 8.42285,-2.74658 1.51363,-0.19527 3.0151,-0.29293 4.5044,-0.29297 5.78608,4e-5 9.9975,1.74564 12.63427,5.23682 1.92866,2.56351 2.89301,5.76174 2.89307,9.59472 z m -8.31299,6.5918 c -5e-5,-1.53807 -1.73345,-2.95408 -5.20019,-4.24805 -3.36919,-1.24509 -6.90922,-1.86765 -10.62012,-1.86767 -3.68655,2e-5 -7.00076,0.46999 -9.94263,1.40991 -2.94191,0.93996 -4.41286,2.02028 -4.41284,3.24097 -2e-5,1.39162 1.73338,2.85036 5.2002,4.37622 3.46676,1.52589 6.71383,2.28883 9.74121,2.28882 3.54,10e-6 6.8481,-0.43944 9.92431,-1.31836 3.53999,-1.02538 5.31001,-2.31932 5.31006,-3.88184 z"
         style="stroke:#ff40d9;fill:#cb48ff;fill-opacity:1;stroke-opacity:1"
         id="path3808" />
      <path
         d="m 412.15527,507.31374 c -5e-5,1.24514 -0.0489,2.70998 -0.14648,4.39453 -5e-5,0.29299 -0.12212,0.40285 -0.36621,0.32959 -4.15044,-0.92771 -10.94975,-2.16062 -20.39795,-3.69873 -8.39846,-1.34275 -12.79299,-2.01413 -13.18359,-2.01416 -0.56155,3e-5 -0.84231,2.29495 -0.84229,6.88477 -2e-5,5.78614 1.26951,10.10743 3.80859,12.96387 1.92869,2.17285 4.40671,3.33252 7.43409,3.479 1.70895,0.0732 3.28365,-0.1831 4.72412,-0.76904 0.56148,-0.21973 0.84225,-0.43945 0.84228,-0.65918 -3e-5,-0.14648 -0.14652,-0.26856 -0.43945,-0.36621 -3.19828,-0.58594 -5.81058,-1.77612 -7.83692,-3.57056 -2.02639,-1.79443 -3.03957,-3.93676 -3.03955,-6.427 -2e-5,-1.56249 0.88499,-2.82591 2.65503,-3.79029 1.76999,-0.96433 4.18088,-1.44651 7.23267,-1.44653 2.09957,2e-5 4.32125,0.21975 6.66504,0.65918 6.29878,1.22072 9.44819,3.74757 9.44824,7.58057 -5e-5,1.07422 -0.29302,2.17286 -0.87891,3.2959 -1.63579,3.07617 -3.66215,5.27343 -6.0791,6.59179 -3.51566,1.9043 -8.86234,2.85644 -16.04004,2.85645 -8.25197,-1e-5 -14.84376,-3.05176 -19.77539,-9.15528 -4.22363,-5.20018 -6.33545,-11.07176 -6.33545,-17.61474 0,-12.08493 9.87548,-18.1274 29.62647,-18.12744 11.45015,4e-5 18.4936,2.86869 21.13037,8.60595 1.19624,2.61234 1.79438,5.94486 1.79443,9.99756 z m -14.02588,-8.42285 c -4e-5,-1.36715 -0.89115,-2.4841 -2.67334,-3.35083 -1.78226,-0.86666 -4.13821,-1.30001 -7.06787,-1.30005 -3.41799,4e-5 -6.3843,0.31742 -8.89892,0.95215 -2.95412,0.73246 -4.43117,1.72123 -4.43115,2.96631 -2e-5,3.14944 5.04148,4.72415 15.12451,4.72412 5.29781,3e-5 7.94673,-1.33054 7.94677,-3.9917 z m -4.54101,-25.19531 c -4e-5,2.83208 -1.52591,5.26128 -4.57764,7.2876 -1.07425,0.70805 -2.58792,1.25737 -4.54101,1.64795 -3.14944,0.63481 -4.83401,0.9766 -5.05371,1.02539 -1.1719,0.34184 -2.0386,0.69584 -2.6001,1.06201 -0.41506,0.19536 -0.67141,0.29301 -0.76905,0.29297 -0.3174,4e-5 -0.46388,-0.47603 -0.43945,-1.42823 0.78123,-0.90327 1.45262,-2.14838 2.01416,-3.73535 1.19627,-3.3935 2.47801,-5.99359 3.84522,-7.80029 1.83103,-2.44135 4.34567,-3.66205 7.54394,-3.66211 1.4404,6e-5 2.55124,0.52496 3.33252,1.57471 0.83004,1.1231 1.24508,2.36822 1.24512,3.73535 z"
         style="stroke:#ff40d9;fill:#cb48ff;fill-opacity:1;stroke-opacity:1"
         id="path3810" />
      <path
         d="m 440.28027,532.36257 c -3.24709,-1.41602 -6.46974,-2.12402 -9.66797,-2.12402 -4.27247,0 -8.77686,1.14746 -13.51318,3.44238 -0.3418,0.1709 -0.56153,0.23193 -0.65918,0.18311 -0.12207,-0.0733 -0.13428,-0.30518 -0.0366,-0.6958 3.22265,-12.98828 4.83398,-23.6328 4.83398,-31.9336 0,-7.25094 -0.92774,-14.20894 -2.7832,-20.87402 -0.29297,-1.00093 -0.97657,-1.70894 -2.05078,-2.12403 -0.83008,-0.29291 -2.2461,-0.51264 -4.24805,-0.65918 -0.92773,-0.83002 -1.30615,-2.81976 -1.13525,-5.96923 0.14649,0.0489 0.57373,0.0733 1.28174,0.0732 3.61328,6e-5 11.58446,-0.68354 23.91357,-2.05078 1.66013,5.8106 2.49021,12.26811 2.49024,19.37256 -3e-5,13.08596 -2.45364,24.48732 -7.36084,34.2041 1.75779,-0.85449 3.52781,-1.28173 5.31006,-1.28174 1.41599,10e-6 2.62448,0.21973 3.62548,0.65918 z"
         style="stroke:#ff40d9;fill:#cb48ff;fill-opacity:1;stroke-opacity:1"
         id="path3812" />
      <path
         d="m 505.02637,489.80886 c -6e-5,2.24613 -0.18317,3.50345 -0.54932,3.77197 -2.00201,-0.415 -3.74762,-0.62252 -5.23682,-0.62256 -1.97759,4e-5 -3.05181,0.4517 -3.22265,1.35498 -0.51275,2.46586 -1.01324,6.10355 -1.50147,10.91309 -0.56157,5.32229 -0.84233,9.66798 -0.84228,13.03711 l 0,1.57471 c 1.36713,-0.65917 2.89301,-0.98876 4.57763,-0.98877 1.48921,10e-6 2.8686,0.21974 4.13819,0.65918 l 0.51269,6.00586 -0.80566,0 c -3.05181,0 -7.18999,1.08643 -12.41455,3.25927 -3.95512,1.63575 -7.7515,3.52783 -11.38916,5.67627 -0.53715,0.31738 -0.83011,0.46387 -0.87891,0.43946 -0.14652,-0.0488 -0.1221,-0.47608 0.0732,-1.28174 0.95212,-3.85742 1.59909,-7.65381 1.94092,-11.38916 -3.39358,3.93067 -7.11673,6.84814 -11.16943,8.75244 -3.14944,1.46484 -6.15236,2.19726 -9.00879,2.19727 -3.51564,-10e-6 -6.39649,-0.83009 -8.64258,-2.49024 -2.49024,-1.85547 -3.73535,-4.45556 -3.73535,-7.80029 0,-5.3955 1.85546,-10.80321 5.56641,-16.22315 2.58788,-3.75974 5.73729,-7.11667 9.44824,-10.0708 -0.34182,4e-5 -0.87893,-0.0122 -1.61133,-0.0366 -0.73244,-0.0244 -1.26955,-0.0366 -1.61133,-0.0366 -4.27247,3e-5 -8.65479,0.17093 -13.14697,0.5127 0.29297,-0.56149 1.26953,-2.53903 2.92969,-5.93262 6.00585,0.4639 11.30369,0.69584 15.89355,0.6958 2.124,4e-5 6.62839,-0.10983 13.51319,-0.32959 -3.12504,3.85746 -5.78617,8.19095 -7.9834,13.00049 -2.31936,5.07814 -3.47903,9.30177 -3.47901,12.6709 -2e-5,1.95313 0.45164,3.52784 1.35498,4.72412 0.83006,1.09864 1.85545,1.64795 3.07618,1.64795 2.29489,0 4.83395,-3.33251 7.61718,-9.99756 2.92965,-7.05564 4.73629,-14.88034 5.41992,-23.47412 0.17086,-2.12398 0.26852,-3.69869 0.29297,-4.72412 2.19723,0.53715 9.15523,2.03861 20.87403,4.50439 z"
         style="stroke:#ff40d9;fill:#cb48ff;fill-opacity:1;stroke-opacity:1"
         id="path3814" />
      <path
         d="m 530.36816,532.36257 c -3.24709,-1.41602 -6.46974,-2.12402 -9.66796,-2.12402 -4.27248,0 -8.77687,1.14746 -13.51319,3.44238 -0.3418,0.1709 -0.56153,0.23193 -0.65918,0.18311 -0.12207,-0.0733 -0.13428,-0.30518 -0.0366,-0.6958 3.22265,-12.98828 4.83398,-23.6328 4.83399,-31.9336 -10e-6,-7.25094 -0.92775,-14.20894 -2.78321,-20.87402 -0.29297,-1.00093 -0.97657,-1.70894 -2.05078,-2.12403 -0.83008,-0.29291 -2.24609,-0.51264 -4.24805,-0.65918 -0.92773,-0.83002 -1.30615,-2.81976 -1.13525,-5.96923 0.14649,0.0489 0.57373,0.0733 1.28174,0.0732 3.61328,6e-5 11.58446,-0.68354 23.91357,-2.05078 1.66013,5.8106 2.49021,12.26811 2.49024,19.37256 -3e-5,13.08596 -2.45364,24.48732 -7.36084,34.2041 1.75779,-0.85449 3.52781,-1.28173 5.31006,-1.28174 1.41599,10e-6 2.62448,0.21973 3.62548,0.65918 z"
         style="stroke:#ff40d9;fill:#cb48ff;fill-opacity:1;stroke-opacity:1"
         id="path3816" />
      <path
         d="m 596.21289,530.16531 c -1.14752,-0.80567 -3.0152,-1.2085 -5.60303,-1.2085 -3.12505,0 -6.65288,0.5127 -10.58349,1.53809 -3.93071,1.02538 -7.00688,2.22167 -9.22852,3.58886 0.85446,-4.10156 1.2817,-6.83593 1.28174,-8.20312 -4e-5,-0.41504 -0.0733,-0.61035 -0.21973,-0.58594 -0.0977,0.0244 -0.25638,0.12207 -0.47607,0.29297 -4.1016,3.36914 -8.99661,5.41992 -14.68506,6.15234 -2.70998,0.3418 -5.0049,0.5127 -6.88477,0.5127 -5.56641,0 -9.55811,-1.18409 -11.97509,-3.55225 -2.17286,-2.12402 -3.25928,-5.38329 -3.25928,-9.77783 0,-2.29491 0.21972,-4.82176 0.65918,-7.58057 0.90332,-5.46872 2.85644,-9.98532 5.85937,-13.5498 3.61327,-4.2236 8.23973,-6.33541 13.8794,-6.33545 6.10349,4e-5 12.04831,2.80765 17.83447,8.42285 -4e-5,-1.22067 -0.34183,-2.94186 -1.02539,-5.16357 -0.75687,-2.36813 -1.61136,-4.29684 -2.56348,-5.78614 12.01168,-1.83101 20.31245,-3.58882 24.90235,-5.27343 0.43939,1.53813 0.65912,3.08842 0.65918,4.65088 -6e-5,1.26957 -0.14655,2.05082 -0.43946,2.34375 -3.58892,1.22074 -5.38335,2.31937 -5.3833,3.29589 l 0,0.0732 c -5e-5,0.8057 0.0366,2.07523 0.10987,3.80859 0.0732,1.73343 0.1098,3.06399 0.10986,3.9917 -6e-5,7.83693 -1.00103,14.30665 -3.00293,19.40918 1.61127,-1.00097 3.52778,-1.50146 5.74951,-1.50147 1.17182,10e-6 2.25824,0.13429 3.25928,0.40284 z m -21.27685,-20.4712 c -5e-5,-1.02537 -1.02544,-1.87986 -3.07618,-2.56347 -2.17288,-0.7324 -5.00491,-1.09861 -8.49609,-1.09864 -4.56546,3e-5 -8.95998,0.85452 -13.18359,2.56348 -4.10158,1.68459 -6.15236,3.38137 -6.15235,5.09033 -10e-6,1.36721 1.45263,2.46584 4.35791,3.2959 2.61229,0.73244 5.71287,1.09865 9.30176,1.09863 4.07712,2e-5 8.01999,-0.97655 11.82861,-2.92968 3.61324,-1.87987 5.41988,-3.69871 5.41993,-5.45655 z"
         style="stroke:#ff40d9;fill:#cb48ff;fill-opacity:1;stroke-opacity:1"
         id="path3818" />
    </g>
    <path
       style="fill:#ff2f2f;fill-opacity:1;stroke:none"
       d="m 397.94643,422.00504 c -13.76006,15.57115 -42.53196,50.3784 -38.03572,53.83928 7.63443,5.87643 14.44147,-20.30699 22.13125,-30.61974 6.91394,-9.27226 19.2055,-21.20405 22.6009,-22.05883 4.95954,-1.24855 20.2741,2.22946 20.53571,-8.92857 0.09,-3.83927 -6.50357,-2.39934 -8.48214,-1.51786 -2.56002,1.14053 -5.80468,3.41859 -9.46429,4.375 -4.49281,1.17416 -9.28571,4.91072 -9.28571,4.91072 z"
       id="path3776"
       inkscape:connector-curvature="0"
       sodipodi:nodetypes="cssssssc" />
  </g>
</svg>
